<svg width="134" height="40" viewBox="0 0 134 40" fill="none" xmlns="http://www.w3.org/2000/svg">
<g clip-path="url(#clip0_29_119)">
<path d="M24.5462 18.7663V5.94601L33.7461 15.146H37.2297L22.0837 0V40L24.5462 37.5376V21.2337H39.5553L42.0178 18.7663H24.5462Z" fill="#243581"/>
<path d="M18.7663 2.46244V18.7663H0L21.2337 40V0L18.7712 2.46244H18.7663ZM18.7663 34.054L5.94601 21.2337H18.7663V34.054Z" fill="#243581"/>
<path d="M59.9389 13.4066C61.3802 14.1737 62.4991 15.2485 63.2906 16.6263C64.0821 18.0041 64.4778 19.6018 64.4778 21.4095C64.4778 23.2173 64.0821 24.7905 63.2906 26.1829C62.4991 27.5754 61.3802 28.6503 59.9243 29.4173C58.4732 30.1844 56.7925 30.5655 54.8772 30.5655H48.0176V12.2584H54.8772C56.8071 12.2584 58.4927 12.6395 59.9389 13.4066ZM58.5318 25.323C59.4699 24.4045 59.9389 23.1 59.9389 21.4095C59.9389 19.719 59.4699 18.4096 58.5318 17.4716C57.5937 16.5335 56.2795 16.0645 54.5939 16.0645H52.4832V26.7057H54.5939C56.2795 26.7057 57.5937 26.2465 58.5318 25.323Z" fill="#243581"/>
<path d="M71.44 15.8299V19.5334H77.4104V22.9779H71.44V26.994H78.197V30.5655H66.9841V12.2584H78.197V15.8299H71.44Z" fill="#243581"/>
<path d="M93.0061 12.2584V15.8299H85.5454V19.6897H91.125V23.1586H85.5454V30.5655H81.0847V12.2584H93.0061Z" fill="#243581"/>
<path d="M99.8118 12.2584V30.5655H95.3511V12.2584H99.8118Z" fill="#243581"/>
<path d="M119.428 30.5655H114.968L107.507 19.2744V30.5655H103.046V12.2584H107.507L114.968 23.6032V12.2584H119.428V30.5655Z" fill="#243581"/>
<path d="M127.119 15.8299V19.5334H133.089V22.9779H127.119V26.994H133.876V30.5655H122.663V12.2584H133.876V15.8299H127.119Z" fill="#243581"/>
</g>
<defs>
<clipPath id="clip0_29_119">
<rect width="133.876" height="40" fill="white"/>
</clipPath>
</defs>
</svg>
